#!OML:ASF H:\Pregnant\Project 1\Capture day 1\Session 1\femalepreg.ASF
:FULLY-SPECIFIED
:DEGREES
967
root 3.70575 15.4186 12.9974 -161.433 177.073 -180.02
lowerback -19.522 -1.79628 8.01964
upperback -4.28312 -4.37657 5.58912
thorax 6.11284 -2.04133 0.422474
lowerneck -17.472 1.64652 3.20768
upperneck 39.804 2.69005 -3.57181
head 17.7923 1.06449 -1.69565
rclavicle -1.22253e-014 -3.97569e-014
rhumerus -34.4397 -2.36847 -71.4791
rradius 22.1908
rwrist -6.71149
rhand -18.9132 -22.5445
rfingers 7.12502
rthumb 7.38894 -52.3955
lclavicle -1.22253e-014 -3.97569e-014
lhumerus -39.4786 -17.2503 95.4137
lradius 44.6329
lwrist 39.1735
lhand -26.8048 -9.1814
lfingers 7.12502
lthumb -0.231558 20.7982
rfemur -49.2157 14.8774 16.5008
rtibia 41.3588
rfoot -7.67714 -6.9854
rtoes -11.7938
lfemur -15.0601 -11.758 -25.4044
ltibia 44.7652
lfoot 6.73947 -7.76161
ltoes -23.8222
968
root 3.69069 15.4366 13.1009 -161.46 176.647 -180.135
lowerback -19.3838 -1.95931 8.31986
upperback -4.32677 -4.64369 5.81837
thorax 5.97539 -2.1732 0.447839
lowerneck -17.5959 1.6557 3.32176
upperneck 39.8431 2.64983 -3.56908
head 17.8477 1.06501 -1.72412
rclavicle -8.13029e-014 3.18055e-014
rhumerus -34.4726 -1.91737 -71.4012
rradius 22.7468
rwrist -7.43913
rhand -18.7589 -22.2307
rfingers 7.12502
rthumb 7.53791 -52.0764
lclavicle -8.13029e-014 3.18055e-014
lhumerus -40.005 -17.4611 95.7083
lradius 43.5264
lwrist 39.4906
lhand -26.0489 -8.28757
lfingers 7.12502
lthumb 0.498526 21.6916
rfemur -48.4932 14.5479 16.9662
rtibia 41.1614
rfoot -8.22546 -7.04803
rtoes -11.2189
lfemur -16.6047 -11.5564 -25.0281
ltibia 46.917
lfoot 6.3933 -7.7796
ltoes -25.2246
969
root 3.67348 15.4548 13.2028 -161.497 176.284 -180.264
lowerback -19.2255 -2.09925 8.58243
upperback -4.3546 -4.87007 6.03623
thorax 5.84789 -2.28563 0.493305
lowerneck -17.7039 1.64659 3.42588
upperneck 39.8449 2.57648 -3.54794
head 17.8748 1.05331 -1.74789
rclavicle -4.76089e-014 2.70347e-014
rhumerus -34.4936 -1.5026 -71.3355
rradius 23.2864
rwrist -8.05558
rhand -18.6169 -21.9189
rfingers 7.12502
rthumb 7.67493 -51.7596
lclavicle -4.76089e-014 2.70347e-014
lhumerus -40.4498 -17.7726 96.0093
lradius 42.3496
lwrist 39.7362
lhand -25.1252 -7.29252
lfingers 7.12502
lthumb 1.39063 22.6827
rfemur -47.7596 14.2887 17.4259
rtibia 40.9046
rfoot -8.74339 -7.10311
rtoes -10.5532
lfemur -18.1591 -11.2875 -24.6528
ltibia 48.9577
lfoot 5.88847 -7.68725
ltoes -26.0768
970
root 3.65487 15.4723 13.3024 -161.55 176.001 -180.413
lowerback -19.0353 -2.21055 8.81887
upperback -4.36508 -5.04973 6.24475
thorax 5.72562 -2.37562 0.556131
lowerneck -17.7942 1.62215 3.50903
upperneck 39.8092 2.47991 -3.50965
head 17.8733 1.03149 -1.76356
rclavicle 3.34952e-014 9.54166e-015
rhumerus -34.4951 -1.11439 -71.2827
rradius 23.7929
rwrist -8.57104
rhand -18.5358 -21.5951
rfingers 7.12502
rthumb 7.7532 -51.433
lclavicle 3.34952e-014 9.54166e-015
lhumerus -40.816 -18.1754 96.3214
lradius 41.1114
lwrist 39.894
lhand -24.0046 -6.17246
lfingers 7.12502
lthumb 2.47291 23.793
rfemur -47.0228 14.1013 17.8864
rtibia 40.606
rfoot -9.24122 -7.13722
rtoes -9.83375
lfemur -19.7132 -10.9407 -24.2831
ltibia 50.8829
lfoot 5.31019 -7.45309
ltoes -26.3227
971
root 3.63557 15.4878 13.3996 -161.625 175.806 -180.582
lowerback -18.8063 -2.28781 9.03979
upperback -4.35457 -5.17697 6.44165
thorax 5.60797 -2.44012 0.629159
lowerneck -17.8677 1.58362 3.56738
upperneck 39.7362 2.36344 -3.45294
head 17.8438 1.00037 -1.76918
rclavicle -2.48481e-015 3.02153e-014
rhumerus -34.4663 -0.765476 -71.2384
rradius 24.2487
rwrist -8.96978
rhand -18.5096 -21.2709
rfingers 7.12502
rthumb 7.77852 -51.1079
lclavicle -2.48481e-015 3.02153e-014
lhumerus -41.1088 -18.6638 96.6427
lradius 39.8256
lwrist 39.9275
lhand -22.7197 -4.99932
lfingers 7.12502
lthumb 3.71383 24.9481
rfemur -46.2894 13.9845 18.351
rtibia 40.2874
rfoot -9.71398 -7.14192
rtoes -9.12027
lfemur -21.2486 -10.5137 -23.9248
ltibia 52.6843
lfoot 4.71136 -7.06138
ltoes -26.1728
972
root 3.61624 15.5004 13.494 -161.714 175.692 -180.768
lowerback -18.543 -2.33495 9.25001
upperback -4.32722 -5.25808 6.62982
thorax 5.49234 -2.48224 0.710881
lowerneck -17.9315 1.53733 3.60333
upperneck 39.634 2.23965 -3.38577
head 17.794 0.964197 -1.76662
rclavicle 7.45443e-015 -3.33958e-014
rhumerus -34.399 -0.448255 -71.199
rradius 24.6443
rwrist -9.25021
rhand -18.5374 -20.9431
rfingers 7.12502
rthumb 7.75168 -50.781
lclavicle 7.45443e-015 -3.33958e-014
lhumerus -41.3354 -19.2048 96.9695
lradius 38.5069
lwrist 39.8005
lhand -21.2181 -3.69389
lfingers 7.12502
lthumb 5.16374 26.2232
rfemur -45.5807 13.9211 18.8179
rtibia 39.9732
rfoot -10.1597 -7.11249
rtoes -8.4647
lfemur -22.7683 -10.0208 -23.5802
ltibia 54.3568
lfoot 4.10785 -6.52504
ltoes -25.8597
973
root 3.59755 15.5098 13.5858 -161.812 175.659 -180.968
lowerback -18.2541 -2.3525 9.45229
upperback -4.27944 -5.29581 6.80918
thorax 5.38684 -2.50279 0.798164
lowerneck -18.0001 1.48607 3.62015
upperneck 39.5078 2.11484 -3.31595
head 17.7317 0.924783 -1.75904
rclavicle 5.30755e-014 -1.11319e-014
rhumerus -34.2808 -0.166516 -71.1595
rradius 24.9757
rwrist -9.40983
rhand -18.6247 -20.6368
rfingers 7.12502
rthumb 7.66736 -50.4778
lclavicle 5.30755e-014 -1.11319e-014
lhumerus -41.5006 -19.7803 97.2997
lradius 37.1711
lwrist 39.4882
lhand -19.554 -2.361
lfingers 7.12502
lthumb 6.77033 27.5108
rfemur -44.9096 13.9038 19.2823
rtibia 39.6876
rfoot -10.5599 -7.04843
rtoes -7.93149
lfemur -24.2621 -9.46813 -23.2568
ltibia 55.8882
lfoot 3.49596 -5.86925
ltoes -25.4648
